<mxfile host="app.diagrams.net" modified="2021-11-04T22:47:16.667Z" agent="5.0 (X11; Linux x86_64) AppleWebKit/537.36 (KHTML, like Gecko) Chrome/95.0.4638.69 Safari/537.36" etag="fXUNlnxnvvZIiVmogGl3" version="15.6.8" type="github">
  <diagram id="g65OwibUVPfeZa-2Ke3x" name="Page-1">
    <mxGraphModel dx="1030" dy="625" grid="1" gridSize="10" guides="1" tooltips="1" connect="1" arrows="1" fold="1" page="1" pageScale="1" pageWidth="850" pageHeight="1100" math="0" shadow="0">
      <root>
        <mxCell id="0" />
        <mxCell id="1" parent="0" />
        <mxCell id="hBB15pP0LXZnmL8GRjqS-2" value="Runtime(运行时)&lt;br&gt;包括对象模型、垃圾收集、快照" style="rounded=0;whiteSpace=wrap;html=1;" vertex="1" parent="1">
          <mxGeometry x="300" y="300" width="190" height="60" as="geometry" />
        </mxCell>
        <mxCell id="hBB15pP0LXZnmL8GRjqS-6" value="核心库的Native&lt;br&gt;实现" style="rounded=0;whiteSpace=wrap;html=1;" vertex="1" parent="1">
          <mxGeometry x="510" y="300" width="120" height="60" as="geometry" />
        </mxCell>
        <mxCell id="hBB15pP0LXZnmL8GRjqS-7" value="Server&lt;br&gt;用于调试、分析、热重载" style="rounded=1;whiteSpace=wrap;html=1;" vertex="1" parent="1">
          <mxGeometry x="510" y="180" width="120" height="90" as="geometry" />
        </mxCell>
        <mxCell id="hBB15pP0LXZnmL8GRjqS-8" value="JIT/AOT 编译管道&lt;br&gt;" style="rounded=0;whiteSpace=wrap;html=1;verticalAlign=top;" vertex="1" parent="1">
          <mxGeometry x="300" y="180" width="170" height="90" as="geometry" />
        </mxCell>
        <mxCell id="hBB15pP0LXZnmL8GRjqS-9" value="CFE" style="rounded=1;whiteSpace=wrap;html=1;verticalAlign=top;" vertex="1" parent="1">
          <mxGeometry x="310" y="220" width="70" height="30" as="geometry" />
        </mxCell>
        <mxCell id="hBB15pP0LXZnmL8GRjqS-10" value="Compiler" style="rounded=1;whiteSpace=wrap;html=1;verticalAlign=top;" vertex="1" parent="1">
          <mxGeometry x="390" y="220" width="70" height="30" as="geometry" />
        </mxCell>
        <mxCell id="hBB15pP0LXZnmL8GRjqS-11" value="Interpreter/ Arm Emulator" style="rounded=0;whiteSpace=wrap;html=1;verticalAlign=middle;" vertex="1" parent="1">
          <mxGeometry x="300" y="390" width="330" height="40" as="geometry" />
        </mxCell>
        <mxCell id="hBB15pP0LXZnmL8GRjqS-12" value="DartVM 组件构成图" style="swimlane;verticalAlign=middle;" vertex="1" parent="1">
          <mxGeometry x="280" y="140" width="370" height="310" as="geometry" />
        </mxCell>
      </root>
    </mxGraphModel>
  </diagram>
</mxfile>
